<svg xmlns="http://www.w3.org/2000/svg" viewBox="0 0 24 24" fill="#21759B"><path d="M12 2C6.48 2 2 6.48 2 12s4.48 10 10 10 10-4.48 10-10S17.52 2 12 2zm-1.2 15.1c-.4.2-.8.3-1.2.3-1.5 0-2.7-1.2-2.7-2.7 0-1.5 1.2-2.7 2.7-2.7.4 0 .8.1 1.2.3l.8-1.8c-.6-.3-1.3-.5-2-.5-2.8 0-5 2.2-5 5s2.2 5 5 5c.7 0 1.4-.2 2-.5l-.8-1.9zm4.9-3.4c0-1.5-1.2-2.7-2.7-2.7s-2.7 1.2-2.7 2.7 1.2 2.7 2.7 2.7 2.7-1.2 2.7-2.7zm-2.7-1.2c.8 0 1.5.7 1.5 1.5s-.7 1.5-1.5 1.5-1.5-.7-1.5-1.5.7-1.5 1.5-1.5zm5.8 1.2c0-2.8-2.2-5-5-5-.7 0-1.4.2-2 .5l.8 1.9c.4-.2.8-.3 1.2-.3 1.5 0 2.7 1.2 2.7 2.7 0 1.5-1.2 2.7-2.7 2.7-.4 0-.8-.1-1.2-.3l-.8 1.9c.6.3 1.3.5 2 .5 2.8 0 5-2.2 5-5z"/></svg>